<?xml version="1.0" encoding="UTF-8"?>
<svg version="1.1" xmlns="http://www.w3.org/2000/svg" width="1024" height="1024">
<path d="M0 0 C147.84 0 295.68 0 448 0 C448 10.56 448 21.12 448 32 C458.56 32 469.12 32 480 32 C480 137.6 480 243.2 480 352 C469.44 352 458.88 352 448 352 C448 362.56 448 373.12 448 384 C352.96 384 257.92 384 160 384 C160 510.72 160 637.44 160 768 C149.44 768 138.88 768 128 768 C128 778.56 128 789.12 128 800 C85.76 800 43.52 800 0 800 C0 789.44 0 778.88 0 768 C-10.56 768 -21.12 768 -32 768 C-32 525.12 -32 282.24 -32 32 C-21.44 32 -10.88 32 0 32 C0 21.44 0 10.88 0 0 Z M192 160 C192 181.12 192 202.24 192 224 C223.68 224 255.36 224 288 224 C288 202.88 288 181.76 288 160 C256.32 160 224.64 160 192 160 Z " fill="#99E550" transform="translate(288,120)"/>
<path d="M0 0 C10.56 0 21.12 0 32 0 C32 73.92 32 147.84 32 224 C42.56 224 53.12 224 64 224 C64 245.12 64 266.24 64 288 C74.56 288 85.12 288 96 288 C96 435.84 96 583.68 96 736 C53.76 736 11.52 736 -32 736 C-32 556.48 -32 376.96 -32 192 C-21.44 192 -10.88 192 0 192 C0 128.64 0 65.28 0 0 Z " fill="#76428A" transform="translate(320,184)"/>
<path d="M0 0 C84.48 0 168.96 0 256 0 C256 63.36 256 126.72 256 192 C171.52 192 87.04 192 0 192 C0 128.64 0 65.28 0 0 Z M96 64 C96 85.12 96 106.24 96 128 C127.68 128 159.36 128 192 128 C192 106.88 192 85.76 192 64 C160.32 64 128.64 64 96 64 Z " fill="#FFFFFF" transform="translate(384,216)"/>
<path d="M0 0 C10.56 0 21.12 0 32 0 C32 5.28 32 10.56 32 16 C37.28 16 42.56 16 48 16 C48 47.68 48 79.36 48 112 C53.28 112 58.56 112 64 112 C64 106.72 64 101.44 64 96 C69.28 96 74.56 96 80 96 C80 90.72 80 85.44 80 80 C85.28 80 90.56 80 96 80 C96 74.72 96 69.44 96 64 C101.28 64 106.56 64 112 64 C112 58.72 112 53.44 112 48 C117.28 48 122.56 48 128 48 C128 42.72 128 37.44 128 32 C133.28 32 138.56 32 144 32 C144 26.72 144 21.44 144 16 C149.28 16 154.56 16 160 16 C160 10.72 160 5.44 160 0 C170.56 0 181.12 0 192 0 C192 5.28 192 10.56 192 16 C197.28 16 202.56 16 208 16 C208 26.56 208 37.12 208 48 C202.72 48 197.44 48 192 48 C192 53.28 192 58.56 192 64 C186.72 64 181.44 64 176 64 C176 69.28 176 74.56 176 80 C170.72 80 165.44 80 160 80 C160 85.28 160 90.56 160 96 C154.72 96 149.44 96 144 96 C144 101.28 144 106.56 144 112 C138.72 112 133.44 112 128 112 C128 117.28 128 122.56 128 128 C122.72 128 117.44 128 112 128 C112 133.28 112 138.56 112 144 C106.72 144 101.44 144 96 144 C96 154.56 96 165.12 96 176 C101.28 176 106.56 176 112 176 C112 181.28 112 186.56 112 192 C117.28 192 122.56 192 128 192 C128 197.28 128 202.56 128 208 C133.28 208 138.56 208 144 208 C144 213.28 144 218.56 144 224 C149.28 224 154.56 224 160 224 C160 229.28 160 234.56 160 240 C165.28 240 170.56 240 176 240 C176 245.28 176 250.56 176 256 C181.28 256 186.56 256 192 256 C192 261.28 192 266.56 192 272 C197.28 272 202.56 272 208 272 C208 282.56 208 293.12 208 304 C202.72 304 197.44 304 192 304 C192 309.28 192 314.56 192 320 C181.44 320 170.88 320 160 320 C160 314.72 160 309.44 160 304 C154.72 304 149.44 304 144 304 C144 298.72 144 293.44 144 288 C138.72 288 133.44 288 128 288 C128 282.72 128 277.44 128 272 C122.72 272 117.44 272 112 272 C112 266.72 112 261.44 112 256 C106.72 256 101.44 256 96 256 C96 250.72 96 245.44 96 240 C90.72 240 85.44 240 80 240 C80 234.72 80 229.44 80 224 C74.72 224 69.44 224 64 224 C64 218.72 64 213.44 64 208 C58.72 208 53.44 208 48 208 C48 239.68 48 271.36 48 304 C42.72 304 37.44 304 32 304 C32 309.28 32 314.56 32 320 C21.44 320 10.88 320 0 320 C0 314.72 0 309.44 0 304 C-5.28 304 -10.56 304 -16 304 C-16 208.96 -16 113.92 -16 16 C-10.72 16 -5.44 16 0 16 C0 10.72 0 5.44 0 0 Z " fill="#AC3232" transform="translate(563,581)"/>
<path d="M0 0 C10.56 0 21.12 0 32 0 C32 73.92 32 147.84 32 224 C42.56 224 53.12 224 64 224 C64 276.8 64 329.6 64 384 C53.44 384 42.88 384 32 384 C32 415.68 32 447.36 32 480 C21.44 480 10.88 480 0 480 C0 543.36 0 606.72 0 672 C-10.56 672 -21.12 672 -32 672 C-32 513.6 -32 355.2 -32 192 C-21.44 192 -10.88 192 0 192 C0 128.64 0 65.28 0 0 Z " fill="#5FCDE4" transform="translate(320,184)"/>
<path d="M0 0 C105.6 0 211.2 0 320 0 C320 73.92 320 147.84 320 224 C330.56 224 341.12 224 352 224 C352 234.56 352 245.12 352 256 C246.4 256 140.8 256 32 256 C32 245.44 32 234.88 32 224 C21.44 224 10.88 224 0 224 C0 150.08 0 76.16 0 0 Z M32 32 C32 95.36 32 158.72 32 224 C116.48 224 200.96 224 288 224 C288 160.64 288 97.28 288 32 C203.52 32 119.04 32 32 32 Z " fill="#323C39" transform="translate(352,184)"/>
<path d="M0 0 C10.56 0 21.12 0 32 0 C32 242.88 32 485.76 32 736 C21.44 736 10.88 736 0 736 C0 493.12 0 250.24 0 0 Z " fill="#000000" transform="translate(256,152)"/>
<path d="M0 0 C105.6 0 211.2 0 320 0 C320 10.56 320 21.12 320 32 C224.96 32 129.92 32 32 32 C32 158.72 32 285.44 32 416 C21.44 416 10.88 416 0 416 C0 278.72 0 141.44 0 0 Z " fill="#000000" transform="translate(416,472)"/>
<path d="M0 0 C137.28 0 274.56 0 416 0 C416 10.56 416 21.12 416 32 C289.28 32 162.56 32 32 32 C32 95.36 32 158.72 32 224 C21.44 224 10.88 224 0 224 C0 150.08 0 76.16 0 0 Z " fill="#663931" transform="translate(288,152)"/>
<path d="M0 0 C10.56 0 21.12 0 32 0 C32 47.52 32 95.04 32 144 C42.56 144 53.12 144 64 144 C64 154.56 64 165.12 64 176 C53.44 176 42.88 176 32 176 C32 223.52 32 271.04 32 320 C21.44 320 10.88 320 0 320 C0 314.72 0 309.44 0 304 C-5.28 304 -10.56 304 -16 304 C-16 208.96 -16 113.92 -16 16 C-10.72 16 -5.44 16 0 16 C0 10.72 0 5.44 0 0 Z " fill="#AC3232" transform="translate(563,581)"/>
<path d="M0 0 C10.56 0 21.12 0 32 0 C32 158.4 32 316.8 32 480 C21.44 480 10.88 480 0 480 C0 321.6 0 163.2 0 0 Z " fill="#5B6EE1" transform="translate(288,376)"/>
<path d="M0 0 C10.56 0 21.12 0 32 0 C32 63.36 32 126.72 32 192 C53.12 192 74.24 192 96 192 C96 213.12 96 234.24 96 256 C53.76 256 11.52 256 -32 256 C-32 234.88 -32 213.76 -32 192 C-21.44 192 -10.88 192 0 192 C0 128.64 0 65.28 0 0 Z " fill="#D95763" transform="translate(320,664)"/>
<path d="M0 0 C52.8 0 105.6 0 160 0 C160 42.24 160 84.48 160 128 C107.2 128 54.4 128 0 128 C0 85.76 0 43.52 0 0 Z M32 32 C32 53.12 32 74.24 32 96 C63.68 96 95.36 96 128 96 C128 74.88 128 53.76 128 32 C96.32 32 64.64 32 32 32 Z " fill="#000000" transform="translate(448,248)"/>
<path d="M0 0 C147.84 0 295.68 0 448 0 C448 10.56 448 21.12 448 32 C300.16 32 152.32 32 0 32 C0 21.44 0 10.88 0 0 Z " fill="#000000" transform="translate(288,120)"/>
<path d="M0 0 C105.6 0 211.2 0 320 0 C320 10.56 320 21.12 320 32 C214.4 32 108.8 32 0 32 C0 21.44 0 10.88 0 0 Z " fill="#DF7126" transform="translate(384,440)"/>
<path d="M0 0 C105.6 0 211.2 0 320 0 C320 10.56 320 21.12 320 32 C214.4 32 108.8 32 0 32 C0 21.44 0 10.88 0 0 Z " fill="#8F563B" transform="translate(384,408)"/>
<path d="M0 0 C10.56 0 21.12 0 32 0 C32 105.6 32 211.2 32 320 C21.44 320 10.88 320 0 320 C0 214.4 0 108.8 0 0 Z " fill="#000000" transform="translate(736,152)"/>
<path d="M0 0 C10.56 0 21.12 0 32 0 C32 95.04 32 190.08 32 288 C21.44 288 10.88 288 0 288 C0 192.96 0 97.92 0 0 Z " fill="#D77BBA" transform="translate(352,568)"/>
<path d="M0 0 C31.68 0 63.36 0 96 0 C96 10.56 96 21.12 96 32 C74.88 32 53.76 32 32 32 C32 95.36 32 158.72 32 224 C21.44 224 10.88 224 0 224 C0 150.08 0 76.16 0 0 Z " fill="#FBF236" transform="translate(288,152)"/>
<path d="M0 0 C15.84 0 31.68 0 48 0 C48 5.28 48 10.56 48 16 C53.28 16 58.56 16 64 16 C64 21.28 64 26.56 64 32 C69.28 32 74.56 32 80 32 C80 37.28 80 42.56 80 48 C85.28 48 90.56 48 96 48 C96 53.28 96 58.56 96 64 C101.28 64 106.56 64 112 64 C112 74.56 112 85.12 112 96 C106.72 96 101.44 96 96 96 C96 101.28 96 106.56 96 112 C85.44 112 74.88 112 64 112 C64 106.72 64 101.44 64 96 C58.72 96 53.44 96 48 96 C48 90.72 48 85.44 48 80 C42.72 80 37.44 80 32 80 C32 74.72 32 69.44 32 64 C26.72 64 21.44 64 16 64 C16 58.72 16 53.44 16 48 C10.72 48 5.44 48 0 48 C0 32.16 0 16.32 0 0 Z " fill="#AC3232" transform="translate(659,789)"/>
<path d="M0 0 C10.56 0 21.12 0 32 0 C32 73.92 32 147.84 32 224 C21.44 224 10.88 224 0 224 C0 150.08 0 76.16 0 0 Z " fill="#CBDBFC" transform="translate(672,184)"/>
<path d="M0 0 C10.56 0 21.12 0 32 0 C32 73.92 32 147.84 32 224 C21.44 224 10.88 224 0 224 C0 150.08 0 76.16 0 0 Z " fill="#696A6A" transform="translate(352,184)"/>
<path d="M0 0 C10.56 0 21.12 0 32 0 C32 10.56 32 21.12 32 32 C37.28 32 42.56 32 48 32 C48 37.28 48 42.56 48 48 C53.28 48 58.56 48 64 48 C64 53.28 64 58.56 64 64 C53.44 64 42.88 64 32 64 C32 74.56 32 85.12 32 96 C26.72 96 21.44 96 16 96 C16 90.72 16 85.44 16 80 C10.72 80 5.44 80 0 80 C0 74.72 0 69.44 0 64 C-5.28 64 -10.56 64 -16 64 C-16 95.68 -16 127.36 -16 160 C-21.28 160 -26.56 160 -32 160 C-32 117.76 -32 75.52 -32 32 C-21.44 32 -10.88 32 0 32 C0 21.44 0 10.88 0 0 Z " fill="#AC3232" transform="translate(627,725)"/>
<path d="M0 0 C10.56 0 21.12 0 32 0 C32 63.36 32 126.72 32 192 C21.44 192 10.88 192 0 192 C0 128.64 0 65.28 0 0 Z " fill="#3F3F74" transform="translate(640,216)"/>
<path d="M0 0 C10.56 0 21.12 0 32 0 C32 63.36 32 126.72 32 192 C21.44 192 10.88 192 0 192 C0 128.64 0 65.28 0 0 Z " fill="#CBDBFC" transform="translate(384,216)"/>
<path d="M0 0 C10.56 0 21.12 0 32 0 C32 52.8 32 105.6 32 160 C21.44 160 10.88 160 0 160 C0 107.2 0 54.4 0 0 Z " fill="#5B6EE1" transform="translate(352,408)"/>
<path d="M0 0 C5.28 0 10.56 0 16 0 C16 95.04 16 190.08 16 288 C10.72 288 5.44 288 0 288 C0 192.96 0 97.92 0 0 Z " fill="#000000" transform="translate(547,597)"/>
<path d="M0 0 C42.24 0 84.48 0 128 0 C128 10.56 128 21.12 128 32 C85.76 32 43.52 32 0 32 C0 21.44 0 10.88 0 0 Z " fill="#000000" transform="translate(288,888)"/>
<path d="M0 0 C42.24 0 84.48 0 128 0 C128 10.56 128 21.12 128 32 C85.76 32 43.52 32 0 32 C0 21.44 0 10.88 0 0 Z " fill="#AC3232" transform="translate(288,856)"/>
<path d="M0 0 C15.84 0 31.68 0 48 0 C48 5.28 48 10.56 48 16 C53.28 16 58.56 16 64 16 C64 31.84 64 47.68 64 64 C48.16 64 32.32 64 16 64 C16 58.72 16 53.44 16 48 C10.72 48 5.44 48 0 48 C0 32.16 0 16.32 0 0 Z " fill="#AC3232" transform="translate(659,789)"/>
<path d="M0 0 C10.56 0 21.12 0 32 0 C32 5.28 32 10.56 32 16 C37.28 16 42.56 16 48 16 C48 26.56 48 37.12 48 48 C42.72 48 37.44 48 32 48 C32 53.28 32 58.56 32 64 C26.72 64 21.44 64 16 64 C16 69.28 16 74.56 16 80 C10.72 80 5.44 80 0 80 C0 69.44 0 58.88 0 48 C-10.56 48 -21.12 48 -32 48 C-32 42.72 -32 37.44 -32 32 C-26.72 32 -21.44 32 -16 32 C-16 26.72 -16 21.44 -16 16 C-10.72 16 -5.44 16 0 16 C0 10.72 0 5.44 0 0 Z " fill="#AC3232" transform="translate(723,581)"/>
<path d="M0 0 C10.56 0 21.12 0 32 0 C32 10.56 32 21.12 32 32 C26.72 32 21.44 32 16 32 C16 63.68 16 95.36 16 128 C10.72 128 5.44 128 0 128 C0 85.76 0 43.52 0 0 Z " fill="#000000" transform="translate(595,757)"/>
<path d="M0 0 C15.84 0 31.68 0 48 0 C48 15.84 48 31.68 48 48 C42.72 48 37.44 48 32 48 C32 53.28 32 58.56 32 64 C26.72 64 21.44 64 16 64 C16 53.44 16 42.88 16 32 C5.44 32 -5.12 32 -16 32 C-16 26.72 -16 21.44 -16 16 C-10.72 16 -5.44 16 0 16 C0 10.72 0 5.44 0 0 Z " fill="#AC3232" transform="translate(675,629)"/>
<path d="M0 0 C5.28 0 10.56 0 16 0 C16 31.68 16 63.36 16 96 C21.28 96 26.56 96 32 96 C32 106.56 32 117.12 32 128 C21.44 128 10.88 128 0 128 C0 85.76 0 43.52 0 0 Z " fill="#000000" transform="translate(595,597)"/>
<path d="M0 0 C10.56 0 21.12 0 32 0 C32 10.56 32 21.12 32 32 C21.44 32 10.88 32 0 32 C0 21.44 0 10.88 0 0 Z " fill="#AC3232" transform="translate(691,821)"/>
<path d="M0 0 C10.56 0 21.12 0 32 0 C32 10.56 32 21.12 32 32 C21.44 32 10.88 32 0 32 C0 21.44 0 10.88 0 0 Z " fill="#000000" transform="translate(627,725)"/>
<path d="M0 0 C10.56 0 21.12 0 32 0 C32 10.56 32 21.12 32 32 C21.44 32 10.88 32 0 32 C0 21.44 0 10.88 0 0 Z " fill="#AC3232" transform="translate(627,693)"/>
<path d="M0 0 C10.56 0 21.12 0 32 0 C32 10.56 32 21.12 32 32 C26.72 32 21.44 32 16 32 C16 26.72 16 21.44 16 16 C10.72 16 5.44 16 0 16 C0 10.72 0 5.44 0 0 Z " fill="#000000" transform="translate(691,853)"/>
<path d="M0 0 C5.28 0 10.56 0 16 0 C16 5.28 16 10.56 16 16 C21.28 16 26.56 16 32 16 C32 21.28 32 26.56 32 32 C21.44 32 10.88 32 0 32 C0 21.44 0 10.88 0 0 Z " fill="#000000" transform="translate(723,821)"/>
<path d="M0 0 C10.56 0 21.12 0 32 0 C32 10.56 32 21.12 32 32 C26.72 32 21.44 32 16 32 C16 26.72 16 21.44 16 16 C10.72 16 5.44 16 0 16 C0 10.72 0 5.44 0 0 Z " fill="#000000" transform="translate(659,821)"/>
<path d="M0 0 C5.28 0 10.56 0 16 0 C16 5.28 16 10.56 16 16 C21.28 16 26.56 16 32 16 C32 21.28 32 26.56 32 32 C21.44 32 10.88 32 0 32 C0 21.44 0 10.88 0 0 Z " fill="#000000" transform="translate(691,789)"/>
<path d="M0 0 C10.56 0 21.12 0 32 0 C32 10.56 32 21.12 32 32 C26.72 32 21.44 32 16 32 C16 26.72 16 21.44 16 16 C10.72 16 5.44 16 0 16 C0 10.72 0 5.44 0 0 Z " fill="#000000" transform="translate(627,789)"/>
<path d="M0 0 C5.28 0 10.56 0 16 0 C16 5.28 16 10.56 16 16 C21.28 16 26.56 16 32 16 C32 21.28 32 26.56 32 32 C21.44 32 10.88 32 0 32 C0 21.44 0 10.88 0 0 Z " fill="#000000" transform="translate(659,757)"/>
<path d="M0 0 C10.56 0 21.12 0 32 0 C32 5.28 32 10.56 32 16 C26.72 16 21.44 16 16 16 C16 21.28 16 26.56 16 32 C10.72 32 5.44 32 0 32 C0 21.44 0 10.88 0 0 Z " fill="#000000" transform="translate(659,693)"/>
<path d="M0 0 C10.56 0 21.12 0 32 0 C32 5.28 32 10.56 32 16 C26.72 16 21.44 16 16 16 C16 21.28 16 26.56 16 32 C10.72 32 5.44 32 0 32 C0 21.44 0 10.88 0 0 Z " fill="#000000" transform="translate(691,661)"/>
<path d="M0 0 C5.28 0 10.56 0 16 0 C16 10.56 16 21.12 16 32 C5.44 32 -5.12 32 -16 32 C-16 26.72 -16 21.44 -16 16 C-10.72 16 -5.44 16 0 16 C0 10.72 0 5.44 0 0 Z " fill="#000000" transform="translate(643,661)"/>
<path d="M0 0 C10.56 0 21.12 0 32 0 C32 5.28 32 10.56 32 16 C26.72 16 21.44 16 16 16 C16 21.28 16 26.56 16 32 C10.72 32 5.44 32 0 32 C0 21.44 0 10.88 0 0 Z " fill="#000000" transform="translate(723,629)"/>
<path d="M0 0 C5.28 0 10.56 0 16 0 C16 10.56 16 21.12 16 32 C5.44 32 -5.12 32 -16 32 C-16 26.72 -16 21.44 -16 16 C-10.72 16 -5.44 16 0 16 C0 10.72 0 5.44 0 0 Z " fill="#000000" transform="translate(675,629)"/>
<path d="M0 0 C5.28 0 10.56 0 16 0 C16 10.56 16 21.12 16 32 C5.44 32 -5.12 32 -16 32 C-16 26.72 -16 21.44 -16 16 C-10.72 16 -5.44 16 0 16 C0 10.72 0 5.44 0 0 Z " fill="#000000" transform="translate(707,597)"/>
<path d="M0 0 C10.56 0 21.12 0 32 0 C32 5.28 32 10.56 32 16 C21.44 16 10.88 16 0 16 C0 10.72 0 5.44 0 0 Z " fill="#000000" transform="translate(723,885)"/>
<path d="M0 0 C10.56 0 21.12 0 32 0 C32 5.28 32 10.56 32 16 C21.44 16 10.88 16 0 16 C0 10.72 0 5.44 0 0 Z " fill="#000000" transform="translate(563,885)"/>
<path d="M0 0 C5.28 0 10.56 0 16 0 C16 10.56 16 21.12 16 32 C10.72 32 5.44 32 0 32 C0 21.44 0 10.88 0 0 Z " fill="#000000" transform="translate(755,853)"/>
<path d="M0 0 C5.28 0 10.56 0 16 0 C16 10.56 16 21.12 16 32 C10.72 32 5.44 32 0 32 C0 21.44 0 10.88 0 0 Z " fill="#000000" transform="translate(755,597)"/>
<path d="M0 0 C10.56 0 21.12 0 32 0 C32 5.28 32 10.56 32 16 C21.44 16 10.88 16 0 16 C0 10.72 0 5.44 0 0 Z " fill="#000000" transform="translate(723,581)"/>
<path d="M0 0 C10.56 0 21.12 0 32 0 C32 5.28 32 10.56 32 16 C21.44 16 10.88 16 0 16 C0 10.72 0 5.44 0 0 Z " fill="#000000" transform="translate(563,581)"/>
</svg>
